STARTFONT 2.1
FONT -Monotype-Century Schoolbook-Regular-R-Normal--14-100-100-100-P-64-iso8859-9
SIZE 10 100 100
FONTBOUNDINGBOX 17 17 -3 -3

STARTPROPERTIES 24
FOUNDRY "Monotype"
FAMILY_NAME "Century Schoolbook"
WEIGHT_NAME "Regular"
SLANT "R"
SETWIDTH_NAME "Normal"
ADD_STYLE_NAME ""
PIXEL_SIZE 14
POINT_SIZE 100
RESOLUTION_X 100
RESOLUTION_Y 100
SPACING "P"
AVERAGE_WIDTH 64
CHARSET_REGISTRY "iso8859"
CHARSET_ENCODING "9"
FACE_NAME "Century Schoolbook ISO Latin5"
_DEC_DEVICE_FONTNAMES "PS=centuryschoolbook-lat5"
COPYRIGHT "Copyright (c) 1994 Monotype Typography Ltd."
CAP_HEIGHT 12
X_HEIGHT 8
WEIGHT 10
QUAD_WIDTH 8
DEFAULT_CHAR 160
FONT_DESCENT 4
FONT_ASCENT 14
ENDPROPERTIES

CHARS 191

STARTCHAR space
ENCODING 32
SWIDTH 278 0
DWIDTH 4 0
BBX 0 0 0 0
BITMAP
ENDCHAR

STARTCHAR exclam
ENCODING 33
SWIDTH 296 0
DWIDTH 4 0
BBX 1 10 2 0
BITMAP
80
80
80
80
80
80
80
00
00
80
ENDCHAR

STARTCHAR quotedbl
ENCODING 34
SWIDTH 389 0
DWIDTH 5 0
BBX 4 4 1 6
BITMAP
90
90
90
90
ENDCHAR

STARTCHAR numbersign
ENCODING 35
SWIDTH 556 0
DWIDTH 8 0
BBX 8 10 0 0
BITMAP
12
12
12
7F
24
24
FE
48
48
48
ENDCHAR

STARTCHAR dollar
ENCODING 36
SWIDTH 556 0
DWIDTH 8 0
BBX 6 13 1 -2
BITMAP
10
78
94
94
90
70
18
14
94
94
78
10
10
ENDCHAR

STARTCHAR percent
ENCODING 37
SWIDTH 833 0
DWIDTH 12 0
BBX 9 10 2 0
BITMAP
6100
9100
9200
9400
9700
6C80
1480
1480
2480
4300
ENDCHAR

STARTCHAR ampersand
ENCODING 38
SWIDTH 815 0
DWIDTH 11 0
BBX 9 10 1 0
BITMAP
1800
2400
2400
2400
3B80
5100
8900
8600
8A80
7100
ENDCHAR

STARTCHAR quoteright
ENCODING 39
SWIDTH 204 0
DWIDTH 3 0
BBX 2 4 1 6
BITMAP
40
40
40
80
ENDCHAR

STARTCHAR parenleft
ENCODING 40
SWIDTH 333 0
DWIDTH 5 0
BBX 3 13 1 -3
BITMAP
20
40
40
80
80
80
80
80
80
80
40
40
20
ENDCHAR

STARTCHAR parenright
ENCODING 41
SWIDTH 333 0
DWIDTH 5 0
BBX 3 13 1 -3
BITMAP
80
40
40
20
20
20
20
20
20
20
40
40
80
ENDCHAR

STARTCHAR asterisk
ENCODING 42
SWIDTH 500 0
DWIDTH 7 0
BBX 5 6 1 4
BITMAP
20
20
F8
20
50
50
ENDCHAR

STARTCHAR plus
ENCODING 43
SWIDTH 606 0
DWIDTH 8 0
BBX 7 7 1 1
BITMAP
10
10
10
FE
10
10
10
ENDCHAR

STARTCHAR comma
ENCODING 44
SWIDTH 278 0
DWIDTH 4 0
BBX 2 4 1 -2
BITMAP
40
40
40
80
ENDCHAR

STARTCHAR minus
ENCODING 45
SWIDTH 606 0
DWIDTH 8 0
BBX 8 1 0 4
BITMAP
FF
ENDCHAR

STARTCHAR period
ENCODING 46
SWIDTH 278 0
DWIDTH 4 0
BBX 1 1 2 0
BITMAP
80
ENDCHAR

STARTCHAR slash
ENCODING 47
SWIDTH 278 0
DWIDTH 4 0
BBX 4 10 0 0
BITMAP
10
10
20
20
20
40
40
40
80
80
ENDCHAR

STARTCHAR zero
ENCODING 48
SWIDTH 556 0
DWIDTH 8 0
BBX 6 10 1 0
BITMAP
30
48
84
84
84
84
84
84
48
30
ENDCHAR

STARTCHAR one
ENCODING 49
SWIDTH 556 0
DWIDTH 8 0
BBX 5 10 2 0
BITMAP
20
E0
20
20
20
20
20
20
20
F8
ENDCHAR

STARTCHAR two
ENCODING 50
SWIDTH 556 0
DWIDTH 8 0
BBX 6 10 1 0
BITMAP
78
84
84
04
04
08
10
24
44
FC
ENDCHAR

STARTCHAR three
ENCODING 51
SWIDTH 556 0
DWIDTH 8 0
BBX 6 10 1 0
BITMAP
78
84
84
04
38
04
04
84
84
78
ENDCHAR

STARTCHAR four
ENCODING 52
SWIDTH 556 0
DWIDTH 8 0
BBX 7 10 1 0
BITMAP
08
18
28
28
48
48
88
FE
08
3E
ENDCHAR

STARTCHAR five
ENCODING 53
SWIDTH 556 0
DWIDTH 8 0
BBX 6 10 1 0
BITMAP
64
58
40
F0
88
04
04
84
88
70
ENDCHAR

STARTCHAR six
ENCODING 54
SWIDTH 556 0
DWIDTH 8 0
BBX 6 10 1 0
BITMAP
38
44
84
80
B8
C4
84
84
84
78
ENDCHAR

STARTCHAR seven
ENCODING 55
SWIDTH 556 0
DWIDTH 8 0
BBX 6 10 1 0
BITMAP
FC
84
84
08
08
10
10
10
10
10
ENDCHAR

STARTCHAR eight
ENCODING 56
SWIDTH 556 0
DWIDTH 8 0
BBX 6 10 1 0
BITMAP
78
84
84
C4
78
8C
84
84
84
78
ENDCHAR

STARTCHAR nine
ENCODING 57
SWIDTH 556 0
DWIDTH 8 0
BBX 6 10 1 0
BITMAP
78
84
84
84
8C
74
04
84
88
70
ENDCHAR

STARTCHAR colon
ENCODING 58
SWIDTH 278 0
DWIDTH 4 0
BBX 1 7 2 0
BITMAP
80
00
00
00
00
00
80
ENDCHAR

STARTCHAR semicolon
ENCODING 59
SWIDTH 278 0
DWIDTH 4 0
BBX 2 9 1 -2
BITMAP
40
00
00
00
00
40
40
40
80
ENDCHAR

STARTCHAR less
ENCODING 60
SWIDTH 606 0
DWIDTH 8 0
BBX 7 7 1 1
BITMAP
02
0C
30
C0
30
0C
02
ENDCHAR

STARTCHAR equal
ENCODING 61
SWIDTH 606 0
DWIDTH 8 0
BBX 7 3 1 3
BITMAP
FE
00
FE
ENDCHAR

STARTCHAR greater
ENCODING 62
SWIDTH 606 0
DWIDTH 8 0
BBX 7 7 1 1
BITMAP
80
60
18
06
18
60
80
ENDCHAR

STARTCHAR question
ENCODING 63
SWIDTH 444 0
DWIDTH 6 0
BBX 5 10 1 0
BITMAP
70
88
88
08
10
20
20
00
20
20
ENDCHAR

STARTCHAR at
ENCODING 64
SWIDTH 737 0
DWIDTH 10 0
BBX 10 12 1 -2
BITMAP
0F00
3080
4040
4540
8B40
9140
9240
9680
5B40
4040
3180
0E00
ENDCHAR

STARTCHAR A
ENCODING 65
SWIDTH 722 0
DWIDTH 10 0
BBX 9 10 1 0
BITMAP
0800
0800
1C00
1400
2200
2200
3E00
4100
4100
E380
ENDCHAR

STARTCHAR B
ENCODING 66
SWIDTH 722 0
DWIDTH 10 0
BBX 8 10 1 0
BITMAP
FE
41
41
41
7E
41
41
41
41
FE
ENDCHAR

STARTCHAR C
ENCODING 67
SWIDTH 722 0
DWIDTH 10 0
BBX 8 10 1 0
BITMAP
3D
43
81
81
80
80
80
81
42
3C
ENDCHAR

STARTCHAR D
ENCODING 68
SWIDTH 778 0
DWIDTH 11 0
BBX 9 10 1 0
BITMAP
FE00
4100
4080
4080
4080
4080
4080
4080
4100
FE00
ENDCHAR

STARTCHAR E
ENCODING 69
SWIDTH 722 0
DWIDTH 10 0
BBX 8 10 1 0
BITMAP
FF
41
41
44
7C
44
40
41
41
FF
ENDCHAR

STARTCHAR F
ENCODING 70
SWIDTH 667 0
DWIDTH 9 0
BBX 8 10 1 0
BITMAP
FF
41
41
44
7C
44
40
40
40
E0
ENDCHAR

STARTCHAR G
ENCODING 71
SWIDTH 778 0
DWIDTH 11 0
BBX 9 10 1 0
BITMAP
3D00
4300
8100
8100
8000
8380
8100
8100
4300
3D00
ENDCHAR

STARTCHAR H
ENCODING 72
SWIDTH 833 0
DWIDTH 12 0
BBX 10 10 1 0
BITMAP
E1C0
4080
4080
4080
7F80
4080
4080
4080
4080
E1C0
ENDCHAR

STARTCHAR I
ENCODING 73
SWIDTH 407 0
DWIDTH 5 0
BBX 3 10 1 0
BITMAP
E0
40
40
40
40
40
40
40
40
E0
ENDCHAR

STARTCHAR J
ENCODING 74
SWIDTH 556 0
DWIDTH 8 0
BBX 7 10 0 0
BITMAP
0E
04
04
04
04
04
44
84
88
70
ENDCHAR

STARTCHAR K
ENCODING 75
SWIDTH 778 0
DWIDTH 11 0
BBX 9 10 1 0
BITMAP
E380
4100
4200
4400
4800
7800
4400
4200
4100
E380
ENDCHAR

STARTCHAR L
ENCODING 76
SWIDTH 667 0
DWIDTH 9 0
BBX 8 10 1 0
BITMAP
E0
40
40
40
40
40
41
41
41
FF
ENDCHAR

STARTCHAR M
ENCODING 77
SWIDTH 944 0
DWIDTH 13 0
BBX 11 10 1 0
BITMAP
E0E0
60C0
5140
5140
5140
4A40
4A40
4440
4440
E4E0
ENDCHAR

STARTCHAR N
ENCODING 78
SWIDTH 815 0
DWIDTH 12 0
BBX 10 10 1 0
BITMAP
C1C0
6080
5080
5080
4880
4480
4280
4280
4180
E080
ENDCHAR

STARTCHAR O
ENCODING 79
SWIDTH 778 0
DWIDTH 11 0
BBX 9 10 1 0
BITMAP
3E00
4100
8080
8080
8080
8080
8080
8080
4100
3E00
ENDCHAR

STARTCHAR P
ENCODING 80
SWIDTH 667 0
DWIDTH 9 0
BBX 8 10 1 0
BITMAP
FC
42
41
41
42
7C
40
40
40
E0
ENDCHAR

STARTCHAR Q
ENCODING 81
SWIDTH 778 0
DWIDTH 11 0
BBX 9 13 1 -3
BITMAP
3E00
4100
8080
8080
8080
8080
9880
A480
6300
3E00
0200
0280
0100
ENDCHAR

STARTCHAR R
ENCODING 82
SWIDTH 722 0
DWIDTH 10 0
BBX 9 10 1 0
BITMAP
FE00
4100
4100
4200
7C00
4400
4200
4200
4280
E100
ENDCHAR

STARTCHAR S
ENCODING 83
SWIDTH 630 0
DWIDTH 9 0
BBX 7 10 1 0
BITMAP
7A
86
82
80
70
0C
02
82
C2
BC
ENDCHAR

STARTCHAR T
ENCODING 84
SWIDTH 667 0
DWIDTH 9 0
BBX 7 10 1 0
BITMAP
FE
92
92
10
10
10
10
10
10
38
ENDCHAR

STARTCHAR U
ENCODING 85
SWIDTH 815 0
DWIDTH 12 0
BBX 10 10 1 0
BITMAP
E1C0
4080
4080
4080
4080
4080
4080
4080
2100
1E00
ENDCHAR

STARTCHAR V
ENCODING 86
SWIDTH 722 0
DWIDTH 9 0
BBX 9 10 0 0
BITMAP
E380
4100
4100
2200
2200
2200
1400
1400
0800
0800
ENDCHAR

STARTCHAR W
ENCODING 87
SWIDTH 981 0
DWIDTH 14 0
BBX 14 10 0 0
BITMAP
E39C
4108
4108
2310
2290
14A0
1CE0
0840
0840
0840
ENDCHAR

STARTCHAR X
ENCODING 88
SWIDTH 704 0
DWIDTH 9 0
BBX 9 10 0 0
BITMAP
E380
4100
2200
1400
0800
0800
1400
2200
4100
E380
ENDCHAR

STARTCHAR Y
ENCODING 89
SWIDTH 704 0
DWIDTH 9 0
BBX 9 10 0 0
BITMAP
E380
4100
2200
2200
1400
0800
0800
0800
0800
1C00
ENDCHAR

STARTCHAR Z
ENCODING 90
SWIDTH 611 0
DWIDTH 9 0
BBX 7 10 1 0
BITMAP
FE
82
84
08
10
10
20
42
82
FE
ENDCHAR

STARTCHAR bracketleft
ENCODING 91
SWIDTH 333 0
DWIDTH 5 0
BBX 3 13 1 -3
BITMAP
E0
80
80
80
80
80
80
80
80
80
80
80
E0
ENDCHAR

STARTCHAR backslash
ENCODING 92
SWIDTH 606 0
DWIDTH 8 0
BBX 9 10 -1 0
BITMAP
8000
4000
2000
1000
0800
0800
0400
0200
0100
0080
ENDCHAR

STARTCHAR bracketright
ENCODING 93
SWIDTH 333 0
DWIDTH 5 0
BBX 3 13 1 -3
BITMAP
E0
20
20
20
20
20
20
20
20
20
20
20
E0
ENDCHAR

STARTCHAR asciicircum
ENCODING 94
SWIDTH 606 0
DWIDTH 8 0
BBX 5 5 2 5
BITMAP
20
20
50
50
88
ENDCHAR

STARTCHAR underscore
ENCODING 95
SWIDTH 500 0
DWIDTH 7 0
BBX 7 1 0 -2
BITMAP
FE
ENDCHAR

STARTCHAR quoteleft
ENCODING 96
SWIDTH 204 0
DWIDTH 3 0
BBX 2 4 1 6
BITMAP
40
80
80
80
ENDCHAR

STARTCHAR a
ENCODING 97
SWIDTH 556 0
DWIDTH 8 0
BBX 7 7 1 0
BITMAP
78
84
1C
64
84
8C
76
ENDCHAR

STARTCHAR b
ENCODING 98
SWIDTH 556 0
DWIDTH 8 0
BBX 7 10 1 0
BITMAP
C0
40
40
5C
62
42
42
42
62
5C
ENDCHAR

STARTCHAR c
ENCODING 99
SWIDTH 444 0
DWIDTH 7 0
BBX 6 7 1 0
BITMAP
78
84
84
80
80
84
78
ENDCHAR

STARTCHAR d
ENCODING 100
SWIDTH 574 0
DWIDTH 8 0
BBX 7 10 1 0
BITMAP
0C
04
04
74
8C
84
84
84
8C
76
ENDCHAR

STARTCHAR e
ENCODING 101
SWIDTH 500 0
DWIDTH 7 0
BBX 6 7 1 0
BITMAP
78
84
84
FC
80
84
78
ENDCHAR

STARTCHAR f
ENCODING 102
SWIDTH 333 0
DWIDTH 5 0
BBX 5 10 1 0
BITMAP
38
48
40
F0
40
40
40
40
40
E0
ENDCHAR

STARTCHAR g
ENCODING 103
SWIDTH 537 0
DWIDTH 7 0
BBX 6 10 1 -3
BITMAP
74
88
88
88
70
80
78
84
84
78
ENDCHAR

STARTCHAR h
ENCODING 104
SWIDTH 611 0
DWIDTH 9 0
BBX 8 10 1 0
BITMAP
C0
40
40
5C
62
42
42
42
42
E7
ENDCHAR

STARTCHAR i
ENCODING 105
SWIDTH 315 0
DWIDTH 4 0
BBX 3 10 1 0
BITMAP
40
00
00
C0
40
40
40
40
40
E0
ENDCHAR

STARTCHAR j
ENCODING 106
SWIDTH 296 0
DWIDTH 4 0
BBX 3 13 0 -3
BITMAP
20
00
00
60
20
20
20
20
20
20
20
A0
C0
ENDCHAR

STARTCHAR k
ENCODING 107
SWIDTH 593 0
DWIDTH 8 0
BBX 7 10 1 0
BITMAP
C0
40
40
5E
48
50
70
48
44
EE
ENDCHAR

STARTCHAR l
ENCODING 108
SWIDTH 315 0
DWIDTH 4 0
BBX 3 10 1 0
BITMAP
C0
40
40
40
40
40
40
40
40
E0
ENDCHAR

STARTCHAR m
ENCODING 109
SWIDTH 889 0
DWIDTH 12 0
BBX 11 7 1 0
BITMAP
DD80
6640
4440
4440
4440
4440
EEE0
ENDCHAR

STARTCHAR n
ENCODING 110
SWIDTH 611 0
DWIDTH 9 0
BBX 8 7 1 0
BITMAP
DC
62
42
42
42
42
E7
ENDCHAR

STARTCHAR o
ENCODING 111
SWIDTH 500 0
DWIDTH 7 0
BBX 6 7 1 0
BITMAP
78
84
84
84
84
84
78
ENDCHAR

STARTCHAR p
ENCODING 112
SWIDTH 574 0
DWIDTH 8 0
BBX 7 10 1 -3
BITMAP
DC
62
42
42
42
62
5C
40
40
E0
ENDCHAR

STARTCHAR q
ENCODING 113
SWIDTH 556 0
DWIDTH 8 0
BBX 7 10 1 -3
BITMAP
74
8C
84
84
84
8C
74
04
04
0E
ENDCHAR

STARTCHAR r
ENCODING 114
SWIDTH 444 0
DWIDTH 6 0
BBX 5 7 1 0
BITMAP
D8
68
40
40
40
40
E0
ENDCHAR

STARTCHAR s
ENCODING 115
SWIDTH 463 0
DWIDTH 6 0
BBX 5 7 1 0
BITMAP
68
98
80
70
08
C8
B0
ENDCHAR

STARTCHAR t
ENCODING 116
SWIDTH 389 0
DWIDTH 5 0
BBX 5 9 1 0
BITMAP
40
40
F0
40
40
40
48
48
30
ENDCHAR

STARTCHAR u
ENCODING 117
SWIDTH 611 0
DWIDTH 9 0
BBX 8 7 1 0
BITMAP
C6
42
42
42
42
46
3B
ENDCHAR

STARTCHAR v
ENCODING 118
SWIDTH 537 0
DWIDTH 8 0
BBX 7 7 1 0
BITMAP
EE
44
44
28
28
10
10
ENDCHAR

STARTCHAR w
ENCODING 119
SWIDTH 778 0
DWIDTH 10 0
BBX 11 7 0 0
BITMAP
EEE0
4440
4440
2A80
2A80
1100
1100
ENDCHAR

STARTCHAR x
ENCODING 120
SWIDTH 537 0
DWIDTH 8 0
BBX 7 7 1 0
BITMAP
EE
44
28
10
28
44
EE
ENDCHAR

STARTCHAR y
ENCODING 121
SWIDTH 537 0
DWIDTH 8 0
BBX 7 10 1 -3
BITMAP
EE
44
44
28
28
10
10
20
A0
C0
ENDCHAR

STARTCHAR z
ENCODING 122
SWIDTH 481 0
DWIDTH 6 0
BBX 5 7 1 0
BITMAP
F8
88
10
20
40
88
F8
ENDCHAR

STARTCHAR braceleft
ENCODING 123
SWIDTH 333 0
DWIDTH 5 0
BBX 4 13 1 -3
BITMAP
30
40
40
40
40
40
80
40
40
40
40
40
30
ENDCHAR

STARTCHAR bar
ENCODING 124
SWIDTH 606 0
DWIDTH 8 0
BBX 1 13 4 -3
BITMAP
80
80
80
80
80
80
80
80
80
80
80
80
80
ENDCHAR

STARTCHAR braceright
ENCODING 125
SWIDTH 333 0
DWIDTH 5 0
BBX 4 13 1 -3
BITMAP
C0
20
20
20
20
20
10
20
20
20
20
20
C0
ENDCHAR

STARTCHAR asciitilde
ENCODING 126
SWIDTH 606 0
DWIDTH 8 0
BBX 7 2 1 4
BITMAP
72
9C
ENDCHAR

STARTCHAR space
ENCODING 160
SWIDTH 278 0
DWIDTH 5 0
BBX 0 0 0 0
BITMAP
ENDCHAR

STARTCHAR exclamdown
ENCODING 161
SWIDTH 296 0
DWIDTH 4 0
BBX 1 10 2 -3
BITMAP
80
00
00
80
80
80
80
80
80
80
ENDCHAR

STARTCHAR cent
ENCODING 162
SWIDTH 556 0
DWIDTH 8 0
BBX 6 12 1 -2
BITMAP
08
08
08
78
94
94
A0
A0
E4
78
40
40
ENDCHAR

STARTCHAR sterling
ENCODING 163
SWIDTH 556 0
DWIDTH 8 0
BBX 7 10 1 0
BITMAP
1C
22
20
20
7C
10
10
72
9A
6C
ENDCHAR

STARTCHAR currency
ENCODING 164
SWIDTH 606 0
DWIDTH 8 0
BBX 6 6 1 2
BITMAP
B4
48
84
84
48
B4
ENDCHAR

STARTCHAR yen
ENCODING 165
SWIDTH 704 0
DWIDTH 10 0
BBX 9 10 1 0
BITMAP
E380
4100
2200
2200
1400
7F00
0800
7F00
0800
1C00
ENDCHAR

STARTCHAR brokenbar
ENCODING 166
SWIDTH 606 0
DWIDTH 8 0
BBX 1 13 4 -3
BITMAP
80
80
80
80
80
80
00
80
80
80
80
80
80
ENDCHAR

STARTCHAR section
ENCODING 167
SWIDTH 500 0
DWIDTH 7 0
BBX 6 13 1 -3
BITMAP
30
48
48
60
90
88
84
44
24
18
48
48
30
ENDCHAR

STARTCHAR dieresis
ENCODING 168
SWIDTH 333 0
DWIDTH 5 0
BBX 4 1 1 8
BITMAP
90
ENDCHAR

STARTCHAR copyright
ENCODING 169
SWIDTH 737 0
DWIDTH 10 0
BBX 10 11 0 -1
BITMAP
1E00
6180
4E80
9140
A040
A040
A040
9140
4E80
6180
1E00
ENDCHAR

STARTCHAR ordfeminine
ENCODING 170
SWIDTH 334 0
DWIDTH 5 0
BBX 5 4 0 6
BITMAP
E0
70
B0
58
ENDCHAR

STARTCHAR guillemotleft
ENCODING 171
SWIDTH 426 0
DWIDTH 6 0
BBX 6 6 0 1
BITMAP
24
48
90
90
48
24
ENDCHAR

STARTCHAR logicalnot
ENCODING 172
SWIDTH 606 0
DWIDTH 8 0
BBX 8 4 0 3
BITMAP
FF
01
01
01
ENDCHAR

STARTCHAR hyphen
ENCODING 173
SWIDTH 333 0
DWIDTH 5 0
BBX 3 1 1 3
BITMAP
E0
ENDCHAR

STARTCHAR registered
ENCODING 174
SWIDTH 737 0
DWIDTH 10 0
BBX 10 11 0 -1
BITMAP
1E00
6180
5C80
9240
9240
9C40
9440
9240
5280
6180
1E00
ENDCHAR

STARTCHAR macron
ENCODING 175
SWIDTH 333 0
DWIDTH 5 0
BBX 5 1 0 8
BITMAP
F8
ENDCHAR

STARTCHAR degree
ENCODING 176
SWIDTH 400 0
DWIDTH 6 0
BBX 4 4 1 6
BITMAP
60
90
90
60
ENDCHAR

STARTCHAR plusminus
ENCODING 177
SWIDTH 606 0
DWIDTH 8 0
BBX 7 9 1 0
BITMAP
10
10
10
FE
10
10
10
00
FE
ENDCHAR

STARTCHAR twosuperior
ENCODING 178
SWIDTH 333 0
DWIDTH 5 0
BBX 3 5 1 5
BITMAP
C0
20
40
80
E0
ENDCHAR

STARTCHAR threesuperior
ENCODING 179
SWIDTH 333 0
DWIDTH 5 0
BBX 4 5 1 5
BITMAP
E0
10
60
10
E0
ENDCHAR

STARTCHAR acute
ENCODING 180
SWIDTH 333 0
DWIDTH 5 0
BBX 3 2 1 8
BITMAP
60
80
ENDCHAR

STARTCHAR mu
ENCODING 181
SWIDTH 611 0
DWIDTH 9 0
BBX 6 10 2 -3
BITMAP
88
88
88
88
88
D8
AC
80
80
80
ENDCHAR

STARTCHAR paragraph
ENCODING 182
SWIDTH 606 0
DWIDTH 8 0
BBX 7 13 1 -3
BITMAP
7E
F4
F4
F4
F4
74
14
14
14
14
14
14
14
ENDCHAR

STARTCHAR periodcentered
ENCODING 183
SWIDTH 278 0
DWIDTH 4 0
BBX 2 1 1 4
BITMAP
C0
ENDCHAR

STARTCHAR cedilla
ENCODING 184
SWIDTH 333 0
DWIDTH 5 0
BBX 3 3 1 -3
BITMAP
40
20
C0
ENDCHAR

STARTCHAR onesuperior
ENCODING 185
SWIDTH 333 0
DWIDTH 5 0
BBX 3 5 1 5
BITMAP
C0
40
40
40
E0
ENDCHAR

STARTCHAR ordmasculine
ENCODING 186
SWIDTH 300 0
DWIDTH 4 0
BBX 4 5 0 5
BITMAP
60
90
90
90
60
ENDCHAR

STARTCHAR guillemotright
ENCODING 187
SWIDTH 426 0
DWIDTH 6 0
BBX 6 6 0 1
BITMAP
90
48
24
24
48
90
ENDCHAR

STARTCHAR onequarter
ENCODING 188
SWIDTH 834 0
DWIDTH 12 0
BBX 9 10 2 0
BITMAP
C100
4100
4200
4400
E400
0900
1300
1500
2F80
4100
ENDCHAR

STARTCHAR onehalf
ENCODING 189
SWIDTH 834 0
DWIDTH 12 0
BBX 9 10 2 0
BITMAP
C100
4100
4200
4400
E400
0B00
1080
1100
2200
4380
ENDCHAR

STARTCHAR threequarters
ENCODING 190
SWIDTH 834 0
DWIDTH 12 0
BBX 9 10 2 0
BITMAP
C100
2100
4200
2400
C400
0900
1300
1500
2F80
4100
ENDCHAR

STARTCHAR questiondown
ENCODING 191
SWIDTH 444 0
DWIDTH 6 0
BBX 5 10 1 -3
BITMAP
20
20
00
20
20
40
80
88
88
70
ENDCHAR

STARTCHAR Agrave
ENCODING 192
SWIDTH 722 0
DWIDTH 10 0
BBX 9 13 1 0
BITMAP
3000
0800
0000
0800
0800
1C00
1400
2200
2200
3E00
4100
4100
E380
ENDCHAR

STARTCHAR Aacute
ENCODING 193
SWIDTH 722 0
DWIDTH 10 0
BBX 9 13 1 0
BITMAP
0600
0800
0000
0800
0800
1C00
1400
2200
2200
3E00
4100
4100
E380
ENDCHAR

STARTCHAR Acircumflex
ENCODING 194
SWIDTH 722 0
DWIDTH 10 0
BBX 9 13 1 0
BITMAP
0800
1400
0000
0800
0800
1C00
1400
2200
2200
3E00
4100
4100
E380
ENDCHAR

STARTCHAR Atilde
ENCODING 195
SWIDTH 722 0
DWIDTH 10 0
BBX 9 13 1 0
BITMAP
1A00
2C00
0000
0800
0800
1C00
1400
2200
2200
3E00
4100
4100
E380
ENDCHAR

STARTCHAR Adieresis
ENCODING 196
SWIDTH 722 0
DWIDTH 10 0
BBX 9 12 1 0
BITMAP
1200
0000
0800
0800
1C00
1400
2200
2200
3E00
4100
4100
E380
ENDCHAR

STARTCHAR Aring
ENCODING 197
SWIDTH 722 0
DWIDTH 10 0
BBX 9 14 1 0
BITMAP
0800
1400
0800
0000
0800
0800
1C00
1400
2200
2200
3E00
4100
4100
E380
ENDCHAR

STARTCHAR AE
ENCODING 198
SWIDTH 1000 0
DWIDTH 14 0
BBX 12 10 1 0
BITMAP
1FF0
0A10
1210
1240
23C0
2240
3E00
4210
4210
E7F0
ENDCHAR

STARTCHAR Ccedilla
ENCODING 199
SWIDTH 722 0
DWIDTH 10 0
BBX 8 13 1 -3
BITMAP
3D
43
81
81
80
80
80
81
42
3C
10
08
30
ENDCHAR

STARTCHAR Egrave
ENCODING 200
SWIDTH 722 0
DWIDTH 10 0
BBX 8 13 1 0
BITMAP
30
08
00
FF
41
41
44
7C
44
40
41
41
FF
ENDCHAR

STARTCHAR Eacute
ENCODING 201
SWIDTH 722 0
DWIDTH 10 0
BBX 8 13 1 0
BITMAP
0C
10
00
FF
41
41
44
7C
44
40
41
41
FF
ENDCHAR

STARTCHAR Ecircumflex
ENCODING 202
SWIDTH 722 0
DWIDTH 10 0
BBX 8 13 1 0
BITMAP
08
14
00
FF
41
41
44
7C
44
40
41
41
FF
ENDCHAR

STARTCHAR Edieresis
ENCODING 203
SWIDTH 722 0
DWIDTH 10 0
BBX 8 12 1 0
BITMAP
12
00
FF
41
41
44
7C
44
40
41
41
FF
ENDCHAR

STARTCHAR Igrave
ENCODING 204
SWIDTH 407 0
DWIDTH 5 0
BBX 4 13 0 0
BITMAP
C0
20
00
70
20
20
20
20
20
20
20
20
70
ENDCHAR

STARTCHAR Iacute
ENCODING 205
SWIDTH 407 0
DWIDTH 5 0
BBX 4 13 1 0
BITMAP
30
40
00
E0
40
40
40
40
40
40
40
40
E0
ENDCHAR

STARTCHAR Icircumflex
ENCODING 206
SWIDTH 407 0
DWIDTH 5 0
BBX 3 13 1 0
BITMAP
40
A0
00
E0
40
40
40
40
40
40
40
40
E0
ENDCHAR

STARTCHAR Idieresis
ENCODING 207
SWIDTH 407 0
DWIDTH 5 0
BBX 4 12 1 0
BITMAP
90
00
E0
40
40
40
40
40
40
40
40
E0
ENDCHAR

STARTCHAR Gbreve
ENCODING 208
SWIDTH 778 0
DWIDTH 11 0
BBX 9 13 1 0
BITMAP
2400
1800
0000
3D00
4300
8100
8100
8000
8380
8100
8100
4300
3D00
ENDCHAR

STARTCHAR Ntilde
ENCODING 209
SWIDTH 815 0
DWIDTH 12 0
BBX 10 13 1 0
BITMAP
0D00
1600
0000
C1C0
6080
5080
5080
4880
4480
4280
4280
4180
E080
ENDCHAR

STARTCHAR Ograve
ENCODING 210
SWIDTH 778 0
DWIDTH 11 0
BBX 9 13 1 0
BITMAP
3000
0800
0000
3E00
4100
8080
8080
8080
8080
8080
8080
4100
3E00
ENDCHAR

STARTCHAR Oacute
ENCODING 211
SWIDTH 778 0
DWIDTH 11 0
BBX 9 13 1 0
BITMAP
0600
0800
0000
3E00
4100
8080
8080
8080
8080
8080
8080
4100
3E00
ENDCHAR

STARTCHAR Ocircumflex
ENCODING 212
SWIDTH 778 0
DWIDTH 11 0
BBX 9 13 1 0
BITMAP
0800
1400
0000
3E00
4100
8080
8080
8080
8080
8080
8080
4100
3E00
ENDCHAR

STARTCHAR Otilde
ENCODING 213
SWIDTH 778 0
DWIDTH 11 0
BBX 9 13 1 0
BITMAP
1A00
2C00
0000
3E00
4100
8080
8080
8080
8080
8080
8080
4100
3E00
ENDCHAR

STARTCHAR Odieresis
ENCODING 214
SWIDTH 778 0
DWIDTH 11 0
BBX 9 12 1 0
BITMAP
1200
0000
3E00
4100
8080
8080
8080
8080
8080
8080
4100
3E00
ENDCHAR

STARTCHAR multiply
ENCODING 215
SWIDTH 606 0
DWIDTH 8 0
BBX 6 7 1 1
BITMAP
84
48
30
30
30
48
84
ENDCHAR

STARTCHAR Oslash
ENCODING 216
SWIDTH 778 0
DWIDTH 11 0
BBX 9 10 1 0
BITMAP
3E80
4100
8280
8480
8880
8880
9080
A080
4100
BE00
ENDCHAR

STARTCHAR Ugrave
ENCODING 217
SWIDTH 815 0
DWIDTH 12 0
BBX 10 13 1 0
BITMAP
1800
0400
0000
E1C0
4080
4080
4080
4080
4080
4080
4080
2100
1E00
ENDCHAR

STARTCHAR Uacute
ENCODING 218
SWIDTH 815 0
DWIDTH 12 0
BBX 10 13 1 0
BITMAP
0600
0800
0000
E1C0
4080
4080
4080
4080
4080
4080
4080
2100
1E00
ENDCHAR

STARTCHAR Ucircumflex
ENCODING 219
SWIDTH 815 0
DWIDTH 12 0
BBX 10 13 1 0
BITMAP
0400
0A00
0000
E1C0
4080
4080
4080
4080
4080
4080
4080
2100
1E00
ENDCHAR

STARTCHAR Udieresis
ENCODING 220
SWIDTH 815 0
DWIDTH 12 0
BBX 10 12 1 0
BITMAP
1200
0000
E1C0
4080
4080
4080
4080
4080
4080
4080
2100
1E00
ENDCHAR

STARTCHAR Idotaccent
ENCODING 221
SWIDTH 407 0
DWIDTH 5 0
BBX 3 12 1 0
BITMAP
40
00
E0
40
40
40
40
40
40
40
40
E0
ENDCHAR

STARTCHAR Scedilla
ENCODING 222
SWIDTH 630 0
DWIDTH 9 0
BBX 7 13 1 -3
BITMAP
7A
86
82
80
70
0C
02
82
C2
BC
10
08
30
ENDCHAR

STARTCHAR germandbls
ENCODING 223
SWIDTH 574 0
DWIDTH 8 0
BBX 6 10 1 0
BITMAP
38
44
44
58
44
44
44
44
54
E8
ENDCHAR

STARTCHAR agrave
ENCODING 224
SWIDTH 556 0
DWIDTH 8 0
BBX 7 10 1 0
BITMAP
60
10
00
78
84
1C
64
84
8C
76
ENDCHAR

STARTCHAR aacute
ENCODING 225
SWIDTH 556 0
DWIDTH 8 0
BBX 7 10 1 0
BITMAP
18
20
00
78
84
1C
64
84
8C
76
ENDCHAR

STARTCHAR acircumflex
ENCODING 226
SWIDTH 556 0
DWIDTH 8 0
BBX 7 10 1 0
BITMAP
10
28
00
78
84
1C
64
84
8C
76
ENDCHAR

STARTCHAR atilde
ENCODING 227
SWIDTH 556 0
DWIDTH 8 0
BBX 7 10 1 0
BITMAP
34
58
00
78
84
1C
64
84
8C
76
ENDCHAR

STARTCHAR adieresis
ENCODING 228
SWIDTH 556 0
DWIDTH 8 0
BBX 7 9 1 0
BITMAP
48
00
78
84
1C
64
84
8C
76
ENDCHAR

STARTCHAR aring
ENCODING 229
SWIDTH 556 0
DWIDTH 8 0
BBX 7 11 1 0
BITMAP
10
28
10
00
78
84
1C
64
84
8C
76
ENDCHAR

STARTCHAR ae
ENCODING 230
SWIDTH 796 0
DWIDTH 11 0
BBX 9 7 1 0
BITMAP
7700
8880
1880
6F80
8800
9880
6700
ENDCHAR

STARTCHAR ccedilla
ENCODING 231
SWIDTH 444 0
DWIDTH 7 0
BBX 6 10 1 -3
BITMAP
78
84
84
80
80
84
78
20
10
60
ENDCHAR

STARTCHAR egrave
ENCODING 232
SWIDTH 500 0
DWIDTH 7 0
BBX 6 10 1 0
BITMAP
60
10
00
78
84
84
FC
80
84
78
ENDCHAR

STARTCHAR eacute
ENCODING 233
SWIDTH 500 0
DWIDTH 7 0
BBX 6 10 1 0
BITMAP
18
20
00
78
84
84
FC
80
84
78
ENDCHAR

STARTCHAR ecircumflex
ENCODING 234
SWIDTH 500 0
DWIDTH 7 0
BBX 6 10 1 0
BITMAP
10
28
00
78
84
84
FC
80
84
78
ENDCHAR

STARTCHAR edieresis
ENCODING 235
SWIDTH 500 0
DWIDTH 7 0
BBX 6 9 1 0
BITMAP
48
00
78
84
84
FC
80
84
78
ENDCHAR

STARTCHAR igrave
ENCODING 236
SWIDTH 315 0
DWIDTH 4 0
BBX 4 10 0 0
BITMAP
C0
20
00
60
20
20
20
20
20
70
ENDCHAR

STARTCHAR iacute
ENCODING 237
SWIDTH 315 0
DWIDTH 4 0
BBX 3 10 1 0
BITMAP
60
80
00
C0
40
40
40
40
40
E0
ENDCHAR

STARTCHAR icircumflex
ENCODING 238
SWIDTH 315 0
DWIDTH 4 0
BBX 3 10 1 0
BITMAP
40
A0
00
C0
40
40
40
40
40
E0
ENDCHAR

STARTCHAR idieresis
ENCODING 239
SWIDTH 315 0
DWIDTH 4 0
BBX 4 9 1 0
BITMAP
90
00
C0
40
40
40
40
40
E0
ENDCHAR

STARTCHAR gbreve
ENCODING 240
SWIDTH 537 0
DWIDTH 7 0
BBX 6 13 1 -3
BITMAP
48
30
00
74
88
88
88
70
80
78
84
84
78
ENDCHAR

STARTCHAR ntilde
ENCODING 241
SWIDTH 611 0
DWIDTH 9 0
BBX 8 10 1 0
BITMAP
1A
2C
00
DC
62
42
42
42
42
E7
ENDCHAR

STARTCHAR ograve
ENCODING 242
SWIDTH 500 0
DWIDTH 7 0
BBX 6 10 1 0
BITMAP
60
10
00
78
84
84
84
84
84
78
ENDCHAR

STARTCHAR oacute
ENCODING 243
SWIDTH 500 0
DWIDTH 7 0
BBX 6 10 1 0
BITMAP
18
20
00
78
84
84
84
84
84
78
ENDCHAR

STARTCHAR ocircumflex
ENCODING 244
SWIDTH 500 0
DWIDTH 7 0
BBX 6 10 1 0
BITMAP
10
28
00
78
84
84
84
84
84
78
ENDCHAR

STARTCHAR otilde
ENCODING 245
SWIDTH 500 0
DWIDTH 7 0
BBX 6 10 1 0
BITMAP
34
58
00
78
84
84
84
84
84
78
ENDCHAR

STARTCHAR odieresis
ENCODING 246
SWIDTH 500 0
DWIDTH 7 0
BBX 6 9 1 0
BITMAP
48
00
78
84
84
84
84
84
78
ENDCHAR

STARTCHAR divide
ENCODING 247
SWIDTH 606 0
DWIDTH 8 0
BBX 7 7 1 1
BITMAP
10
00
00
FE
00
00
10
ENDCHAR

STARTCHAR oslash
ENCODING 248
SWIDTH 500 0
DWIDTH 7 0
BBX 6 7 1 0
BITMAP
74
8C
94
A4
A4
C4
B8
ENDCHAR

STARTCHAR ugrave
ENCODING 249
SWIDTH 611 0
DWIDTH 9 0
BBX 8 10 1 0
BITMAP
30
08
00
C6
42
42
42
42
46
3B
ENDCHAR

STARTCHAR uacute
ENCODING 250
SWIDTH 611 0
DWIDTH 9 0
BBX 8 10 1 0
BITMAP
0C
10
00
C6
42
42
42
42
46
3B
ENDCHAR

STARTCHAR ucircumflex
ENCODING 251
SWIDTH 611 0
DWIDTH 9 0
BBX 8 10 1 0
BITMAP
10
28
00
C6
42
42
42
42
46
3B
ENDCHAR

STARTCHAR udieresis
ENCODING 252
SWIDTH 611 0
DWIDTH 9 0
BBX 8 9 1 0
BITMAP
24
00
C6
42
42
42
42
46
3B
ENDCHAR

STARTCHAR dotlessi
ENCODING 253
SWIDTH 315 0
DWIDTH 4 0
BBX 3 7 1 0
BITMAP
C0
40
40
40
40
40
E0
ENDCHAR

STARTCHAR scedilla
ENCODING 254
SWIDTH 463 0
DWIDTH 6 0
BBX 5 10 1 -3
BITMAP
68
98
80
70
08
C8
B0
20
10
60
ENDCHAR

STARTCHAR ydieresis
ENCODING 255
SWIDTH 537 0
DWIDTH 8 0
BBX 7 12 1 -3
BITMAP
24
00
EE
44
44
28
28
10
10
20
A0
C0
ENDCHAR
ENDFONT
